{"asset":{"version":"2.0","generator":"THREE.GLTFExporter"},"scenes":[{"name":"default","nodes":[0]}],"scene":0,"nodes":[{"matrix":[1,0,0,0,0,1,0,0,0,0,1,0,3,-39,-1.5,1],"name":"room -col","extras":{"data":{"name":"room -col","points":[{"name":"Origin","pos":{"x":0,"y":0,"z":0}}],"billboard":{"enabled":false,"y":false},"directional":{"enabled":false,"mode":"cameraAngle","angles":[]},"custom":[],"instance":{"name":"room -col","uuid":"DF680121-690F-4635-A967-2BEA336C513C","parent":null,"pos":{"x":3,"y":-39,"z":-1.5},"rot":{"x":0,"y":0,"z":0,"order":"XYZ"},"sca":{"x":1,"y":1,"z":1},"custom":[]}}},"mesh":0}],"bufferViews":[{"buffer":0,"byteOffset":0,"byteLength":87120,"target":34962,"byteStride":12},{"buffer":0,"byteOffset":87120,"byteLength":87120,"target":34962,"byteStride":12},{"buffer":0,"byteOffset":174240,"byteLength":58080,"target":34962,"byteStride":8},{"buffer":0,"byteOffset":232320,"byteLength":116160,"target":34962,"byteStride":16},{"buffer":0,"byteOffset":348480,"byteLength":14520,"target":34963}],"buffers":[{"byteLength":363000,"uri":"data:application/octet-stream;base64,"}],"accessors":[{"bufferView":0,"componentType":5126,"count":7260,"max":[7.000001907348633,44.003997802734375,1.5054497718811035],"min":[-13,38,-42.5],"type":"VEC3"},{"bufferView":1,"componentType":5126,"count":7260,"max":[1,1,1],"min":[-1,-0.0021495770197361708,-1],"type":"VEC3"},{"bufferView":2,"componentType":5126,"count":7260,"max":[0.7839999794960022,0.3333333134651184],"min":[0.01600000075995922,0.11666667461395264],"type":"VEC2"},{"bufferView":3,"componentType":5126,"count":7260,"max":[1,1,1,1],"min":[1,1,1,1],"type":"VEC4"},{"bufferView":4,"componentType":5123,"count":7260,"max":[7259],"min":[0],"type":"SCALAR"}],"materials":[{"pbrMetallicRoughness":{"metallicFactor":0,"roughnessFactor":0.9,"baseColorTexture":{"index":0}},"alphaMode":"MASK","alphaCutoff":0.01,"name":"interiors","extensions":{"KHR_materials_unlit":{}}}],"textures":[{"sampler":0,"source":0,"name":"interiors"}],"samplers":[{"magFilter":9728,"minFilter":9728,"wrapS":33071,"wrapT":33071}],"images":[{"mimeType":"image/png","uri":"data:image/png;base64,"}],"meshes":[{"primitives":[{"mode":4,"attributes":{"POSITION":0,"NORMAL":1,"TEXCOORD_0":2,"COLOR_0":3},"indices":4,"material":0}]}],"extensionsUsed":["KHR_materials_unlit"]}